# xmcd
#
# Track frame offsets:
#	150
#	12606
#	25393
#	39499
#	53861
#	67381
#	79046
#	91745
#	104315
#	116857
#	127721
#	141679
#	152248
#	161806
#	174067
#	186217
#	195740
#	208340
#	220964
#	231621
#	245088
#	255729
#	268020
#	277972
#	291533
#
# Disc length: 4055 seconds
#
# Revision: 3
# Processed by: cddbd v1.5.2PL0 Copyright (c) Steve Scherf et al.
# Submitted via: audiograbber 1.83.01
#
DISCID=8c0fd519
DTITLE=Verschiedene - Trains and Cars:  A Trip to Rock 'n' Roll, Blues and Hillbill
DTITLE=y [CD 4)
DYEAR=2005
DGENRE=Rock
TTITLE0=Tiny Bradshaw - The Train kept A-Rollin'
TTITLE1=Roy Brown - Train Time Blues
TTITLE2=Amos Milburn - Train Time Blues
TTITLE3=Lowell Fulson - The Train is Leavin'
TTITLE4=Al Sears - Now ride the "D" Train
TTITLE5=Little Esther - Mainliner
TTITLE6=Rev. Ballenger - This Train
TTITLE7=Floyd Dixon - Sad Journey
TTITLE8=Ivory Joe Hunter - Stop rockin' that Train
TTITLE9=Little Junior and The Blue Flames - Mystery Train
TTITLE10=Mabel Scott - Boogie Woogie Choo Choo Train
TTITLE11=Bus Moten - On the gravy Train
TTITLE12=Big Joe McNeely - Night Ride
TTITLE13=Louis Jordan - Choo Choo Ch' Boogie
TTITLE14=Tiny Grimes - Midnight Special
TTITLE15=Louis and Frosty - Train Time
TTITLE16=Eddie Cleanhead Vinson - Railroad Porter' s Blues
TTITLE17=Tiny Bradshaw - Gravy Train
TTITLE18=Wilbert Harrison - Florida Special
TTITLE19=Earl Bostic - Steam Whistle Jump
TTITLE20=Chuck Berry - Maybelline
TTITLE21=Big Boy Groves - I Gotta New Car
TTITLE22=Chuck Higgins - Motorhead Baby
TTITLE23=The Treniers - My Convertible Cadillac
TTITLE24=Jackie Brenston - Rocket "88"
EXTD=
EXTT0=
EXTT1=
EXTT2=
EXTT3=
EXTT4=
EXTT5=
EXTT6=
EXTT7=
EXTT8=
EXTT9=
EXTT10=
EXTT11=
EXTT12=
EXTT13=
EXTT14=
EXTT15=
EXTT16=
EXTT17=
EXTT18=
EXTT19=
EXTT20=
EXTT21=
EXTT22=
EXTT23=
EXTT24=
PLAYORDER=
